Coordinates
version=1
nRows=4
nColumns=63
inDegrees=yes

Units are S.I. units (second, meters, Newtons, ...)
If the header above contains a line with 'inDegrees', this indicates whether rotational values are in degrees (yes) or radians (no).

endheader
time	pelvis_tilt	pelvis_list	pelvis_rotation	pelvis_tx	pelvis_ty	pelvis_tz	hip_flexion_r	hip_adduction_r	hip_rotation_r	knee_angle_r	knee_angle_r_beta	ankle_angle_r	subtalar_angle_r	mtp_angle_r	hip_flexion_l	hip_adduction_l	hip_rotation_l	knee_angle_l	knee_angle_l_beta	ankle_angle_l	subtalar_angle_l	mtp_angle_l	L5_S1_Flex_Ext	L5_S1_Lat_Bending	L5_S1_axial_rotation	L4_L5_Flex_Ext	L4_L5_Lat_Bending	L4_L5_axial_rotation	L3_L4_Flex_Ext	L3_L4_Lat_Bending	L3_L4_axial_rotation	L2_L3_Flex_Ext	L2_L3_Lat_Bending	L2_L3_axial_rotation	L1_L2_Flex_Ext	L1_L2_Lat_Bending	L1_L2_axial_rotation	L1_T12_Flex_Ext	L1_T12_Lat_Bending	L1_T12_axial_rotation	Abs_r3	Abs_r2	Abs_r1	Abs_t1	Abs_t2	neck_flexion	neck_bending	neck_rotation	arm_flex_r	arm_add_r	arm_rot_r	elbow_flex_r	pro_sup_r	wrist_flex_r	wrist_dev_r	arm_flex_l	arm_add_l	arm_rot_l	elbow_flex_l	pro_sup_l	wrist_flex_l	wrist_dev_l
      1.26666667	    -12.28305510	     16.48312371	    -65.95220758	     -0.04263107	      0.94353006	     -0.79839868	     37.19191985	      4.67569790	    -25.15806182	     20.16377622	      0.35192428	     -9.91053225	    -16.40558048	      0.00000000	     19.34182991	     -5.75823708	     11.95212701	     32.63256309	      0.56954567	     15.56004916	    -12.62857359	      0.00000000	     -0.02708858	     -1.34306074	     -0.22450336	     -0.05030619	     -1.78627078	     -0.23853482	     -0.04450382	     -3.26551788	     -0.23853482	     -0.03095953	     -3.26551788	     -0.19644044	     -0.02515445	     -2.73876946	     -0.18240898	     -0.01547841	     -2.08040109	     -0.16837752	     -0.19349099	    -15.19297171	     -1.24862036	      0.00000000	      0.00000000	    -21.17889184	     16.46102871	    -10.63385488	    -39.52742608	    -36.45989928	    -74.76468799	    117.17078443	     89.99559364	      0.00000000	      0.00000000	      2.06159188	    -50.84918479	     -3.18329594	     53.91153906	     89.99559364	      0.00000000	      0.00000000
      1.28333333	    -13.92605883	     16.32223166	    -67.81565554	     -0.03009769	      0.94071213	     -0.78740985	     36.40668672	      6.23493926	    -31.04316725	     21.18950430	      0.36982662	    -14.28436097	    -17.46039097	      0.00000000	     19.07989365	     -6.33148237	     13.34381306	     33.97970300	      0.59305770	     14.42275212	    -16.35480551	      0.00000000	     -0.02185774	     -0.70321878	     -1.62833438	     -0.04059202	     -0.93528097	     -1.73010527	     -0.03591009	     -1.70980613	     -1.73010527	     -0.02498122	     -1.70980613	     -1.42479258	     -0.02029710	     -1.43400373	     -1.32302168	     -0.01248951	     -1.08928588	     -1.22125078	     -0.15612768	     -7.95495144	     -9.05630729	      0.00000000	      0.00000000	    -18.48653324	      7.05380595	     -6.04039292	    -32.67639931	    -39.86057798	    -73.43862515	    122.60388764	     89.99559364	      0.00000000	      0.00000000	    -17.76470121	    -43.45310156	    -29.48273683	     60.42919464	     89.99559364	      0.00000000	      0.00000000
      1.30000000	    -13.02119421	     14.88386140	    -66.31894608	     -0.01915379	      0.93565129	     -0.77676985	     33.17667706	      5.54336866	    -33.95845957	     19.12843953	      0.33385425	    -14.97339423	    -16.28050856	      0.00000000	     17.22779037	     -5.56774265	     13.93898963	     35.97629573	      0.62790481	     15.10052256	    -15.85034732	      0.00000000	     -0.02211595	     -0.43826497	     -1.89216656	     -0.04107154	     -0.58289241	     -2.01042697	     -0.03633430	     -1.06559745	     -2.01042697	     -0.02527632	     -1.06559745	     -1.65564574	     -0.02053688	     -0.89370993	     -1.53738533	     -0.01263706	     -0.67887244	     -1.41912492	     -0.15797205	     -4.95774101	    -10.52366274	      0.00000000	      0.00000000	    -18.96660973	      5.44632369	     -4.60571343	    -25.62178514	    -47.11894442	    -73.61175526	    116.85686721	     89.99559364	      0.00000000	      0.00000000	    -21.81214162	    -41.85864365	    -30.84562890	     56.85856591	     89.99559364	      0.00000000	      0.00000000
      1.31666667	    -16.16988771	     13.01442308	    -53.84540007	     -0.00164672	      0.93440403	     -0.79052360	     34.69922339	      1.46483177	    -38.49346055	     22.27749214	      0.38881559	     -7.01981663	    -15.35947108	      0.00000000	     20.47613779	     -4.87653237	     26.29414346	     38.50013837	      0.67195418	     17.20976678	    -15.29697642	      0.00000000	     -0.02199953	      0.34331325	     -5.47070757	     -0.04085533	      0.45660663	     -5.81262680	     -0.03614303	      0.83473185	     -5.81262680	     -0.02514327	      0.83473185	     -4.78686913	     -0.02042877	      0.70008439	     -4.44494990	     -0.01257053	      0.53179223	     -4.10303068	     -0.15714046	      3.88362820	    -30.42643431	      0.00000000	      0.00000000	    -18.06834309	     -6.04794661	      8.42893940	     -3.77565796	    -50.82880655	    -63.19009718	    111.38813516	     89.99559364	      0.00000000	      0.00000000	    -23.14417196	    -40.22590151	    -36.67743828	     49.63084154	     89.99559364	      0.00000000	      0.00000000
